<svg width="25" height="26" viewBox="0 0 25 26" fill="none" xmlns="http://www.w3.org/2000/svg">
<path d="M23.5042 17.5686C21.8431 17.5686 20.236 17.2985 18.737 16.8124C18.2643 16.6503 17.7377 16.7719 17.373 17.1365L15.2528 19.7969C11.431 17.9738 7.85224 14.5301 5.94809 10.5732L8.5815 8.33144C8.94612 7.95331 9.05416 7.42663 8.90561 6.95396C8.40593 5.45494 8.14935 3.84789 8.14935 2.18682C8.14935 1.45756 7.54164 0.849854 6.81238 0.849854H2.13977C1.41052 0.849854 0.532715 1.17397 0.532715 2.18682C0.532715 14.7326 10.9718 25.1583 23.5042 25.1583C24.463 25.1583 24.8411 24.3075 24.8411 23.5647V18.9056C24.8411 18.1763 24.2334 17.5686 23.5042 17.5686Z" fill="white"/>
</svg>
