<svg width="44" height="44" viewBox="0 0 44 44" fill="none" xmlns="http://www.w3.org/2000/svg">
<path fill-rule="evenodd" clip-rule="evenodd" d="M43.9723 22.1956C43.9723 34.1283 34.2975 43.8031 22.3648 43.8031C10.4321 43.8031 0.757324 34.1283 0.757324 22.1956C0.757324 10.2629 10.4321 0.588135 22.3648 0.588135C34.2975 0.588135 43.9723 10.2629 43.9723 22.1956ZM23.1391 16.5398C21.0377 17.4132 16.8369 19.2228 10.5383 21.9669C9.51555 22.3739 8.97897 22.7718 8.93035 23.1607C8.84752 23.8198 9.6722 24.0791 10.7922 24.4302C10.9452 24.4788 11.1037 24.5274 11.2658 24.5814C12.3695 24.9398 13.8533 25.3593 14.6239 25.3755C15.3244 25.3899 16.1058 25.1018 16.9683 24.5112C22.8528 20.5372 25.8904 18.5295 26.0813 18.4863C26.2163 18.4557 26.4036 18.4161 26.5296 18.5295C26.6557 18.6412 26.6431 18.8536 26.6305 18.9113C26.5476 19.2588 23.3173 22.264 21.6427 23.8198C21.1206 24.3041 20.7514 24.6481 20.6758 24.7273C20.5065 24.9019 20.3337 25.0694 20.168 25.2297C19.1417 26.2164 18.3746 26.9583 20.2112 28.1683C21.0936 28.7499 21.7994 29.2306 22.5034 29.7096C23.2723 30.2336 24.0394 30.7558 25.0333 31.4076C25.2854 31.5732 25.5267 31.7443 25.7626 31.9118C26.6575 32.551 27.4624 33.1236 28.4563 33.0335C29.0325 32.9795 29.6303 32.4375 29.9328 30.8188C30.6477 26.9907 32.0557 18.7006 32.3817 15.283C32.4015 14.9993 32.3894 14.7142 32.3456 14.4331C32.3194 14.2061 32.2089 13.9972 32.0359 13.8479C31.7784 13.6372 31.3787 13.5922 31.1986 13.5958C30.3866 13.6102 29.1405 14.0442 23.1391 16.5398Z" fill="white"/>
</svg>
