<svg width="44" height="44" viewBox="0 0 44 44" fill="none" xmlns="http://www.w3.org/2000/svg">
<path d="M22.2434 10.0114C19.0738 10.0146 16.035 11.2749 13.7935 13.5159C11.5521 15.7569 10.2911 18.7956 10.2873 21.9651C10.2849 24.2219 10.9187 26.4211 12.1143 28.3249L12.3976 28.7763L11.19 33.1866L15.7156 32.0006L16.1501 32.2599C17.9928 33.3505 20.095 33.9252 22.2362 33.9237H22.2386C25.4072 33.9192 28.4447 32.6587 30.6854 30.4184C32.9262 28.1782 34.1873 25.1409 34.1923 21.9723C34.1978 20.4018 33.8917 18.8457 33.2917 17.3943C32.6916 15.9428 31.8096 14.6248 30.6967 13.5166C29.5896 12.4023 28.2724 11.5186 26.8213 10.917C25.3703 10.3153 23.8143 10.0075 22.2434 10.0114ZM29.273 27.1005C28.9729 27.9408 27.5372 28.7043 26.8482 28.8075C26.0928 28.9377 25.3175 28.8892 24.5842 28.6658C23.8886 28.4504 23.205 28.198 22.5363 27.9096C18.9303 26.3538 16.5775 22.7262 16.395 22.4837C16.2173 22.2436 14.9305 20.5342 14.9305 18.7672C14.9305 16.9978 15.8572 16.1287 16.1861 15.7686C16.3069 15.6321 16.4545 15.522 16.6197 15.4452C16.785 15.3684 16.9643 15.3264 17.1465 15.322C17.3865 15.322 17.6242 15.3244 17.8355 15.334C18.0564 15.3436 18.3517 15.25 18.6422 15.951C18.9423 16.6713 19.6625 18.4383 19.7514 18.6184C19.8402 18.796 19.9002 19.0073 19.7826 19.2474C19.6625 19.4899 19.6049 19.6363 19.4224 19.8476C19.2448 20.0589 19.0455 20.3158 18.8847 20.479C18.7046 20.6567 18.5173 20.8511 18.7262 21.2113C18.9375 21.569 19.6577 22.7478 20.7237 23.7009C22.097 24.9253 23.2566 25.3023 23.6143 25.4847C23.9744 25.6624 24.1833 25.636 24.3946 25.3935C24.6034 25.151 25.2925 24.3443 25.5326 23.9866C25.7726 23.6265 26.0103 23.6865 26.3416 23.8042C26.6705 23.9266 28.4376 24.7933 28.7953 24.9734C29.1506 25.151 29.3931 25.2423 29.4843 25.3935C29.5708 25.5424 29.5707 26.2602 29.273 27.1005Z" fill="white"/>
<path d="M41.3468 0.588135H2.93354C2.2968 0.588135 1.68614 0.841078 1.2359 1.29132C0.785659 1.74156 0.532715 2.35222 0.532715 2.98896V41.4022C0.532715 42.039 0.785659 42.6496 1.2359 43.0999C1.68614 43.5501 2.2968 43.8031 2.93354 43.8031H41.3468C41.9836 43.8031 42.5942 43.5501 43.0445 43.0999C43.4947 42.6496 43.7477 42.039 43.7477 41.4022V2.98896C43.7477 2.35222 43.4947 1.74156 43.0445 1.29132C42.5942 0.841078 41.9836 0.588135 41.3468 0.588135ZM22.2362 36.3509H22.2314C19.8307 36.3512 17.4683 35.7494 15.3602 34.6007L7.7352 36.6006L9.77591 29.1484C8.51543 26.9618 7.85252 24.482 7.85375 21.9581C7.85499 19.4342 8.52033 16.955 9.78296 14.7696C11.0456 12.5842 12.861 10.7696 15.0469 9.50788C17.2329 8.2462 19.7123 7.58191 22.2362 7.58175C24.1269 7.57652 25.9999 7.94669 27.7465 8.67079C29.4931 9.3949 31.0785 10.4585 32.4109 11.8C33.7495 13.1333 34.8103 14.7189 35.5319 16.465C36.2535 18.2111 36.6216 20.083 36.6148 21.9723C36.6091 25.784 35.0924 29.4379 32.3971 32.1332C29.7018 34.8285 26.0479 36.3452 22.2362 36.3509Z" fill="white"/>
</svg>
