<svg width="322" height="68" viewBox="0 0 322 68" fill="none" xmlns="http://www.w3.org/2000/svg">
<mask id="mask0_263_553" style="mask-type:alpha" maskUnits="userSpaceOnUse" x="0" y="0" width="67" height="67">
<path d="M66.2552 33.3289C66.2552 51.5088 51.5175 66.2464 33.3375 66.2464C15.1576 66.2464 0.419922 51.5088 0.419922 33.3289C0.419922 15.1491 15.1576 0.411377 33.3375 0.411377C51.5175 0.411377 66.2552 15.1491 66.2552 33.3289Z" fill="#D9D9D9"/>
</mask>
<g mask="url(#mask0_263_553)">
<path d="M-7.01816 51.6327L11.6291 52.3493V28.7292H-7.01816V51.6327Z" fill="#1A1A1A"/>
<path d="M-7.01816 27.1563H11.6291L30.1796 12.2427H12.7144L-7.01816 27.1563Z" fill="#1A1A1A"/>
<path d="M26.2766 25.7576V37.3721H33.2059V20.6977L26.2766 25.7576Z" fill="#1A1A1A"/>
<path d="M35.1214 20.7017V37.3721H42.7268V26.2751L35.1214 20.7017Z" fill="#1A1A1A"/>
<path d="M44.6422 27.6788V37.3721H48.9801V30.8577L44.6422 27.6788Z" fill="#1A1A1A"/>
<path d="M48.9801 39.2087H44.6422V47.9595H48.9801V39.2087Z" fill="#1A1A1A"/>
<path d="M42.7268 47.9595V39.2087H35.1214V47.9595H42.7268Z" fill="#1A1A1A"/>
<path d="M33.2059 47.9595V39.2087H26.2766V47.9595H33.2059Z" fill="#1A1A1A"/>
<path d="M24.3611 47.9595V39.2087H19.2909V47.9595H24.3611Z" fill="#1A1A1A"/>
<path d="M19.2909 37.3721H24.3611V27.1563L19.2909 30.8587V37.3721Z" fill="#1A1A1A"/>
<path fill-rule="evenodd" clip-rule="evenodd" d="M34.1691 12.2427L55.1771 28.7292V51.6327H13.5446V28.7292L34.1691 12.2427ZM34.1647 17.689L50.8955 29.9498V49.7961H17.3754V29.9489L34.1647 17.689Z" fill="#1A1A1A"/>
</g>
<path fill-rule="evenodd" clip-rule="evenodd" d="M34.1816 62.5546C50.0732 62.5546 62.9559 49.6718 62.9559 33.7802C62.9559 17.8886 50.0732 5.00589 34.1816 5.00589C18.29 5.00589 5.40726 17.8886 5.40726 33.7802C5.40726 49.6718 18.29 62.5546 34.1816 62.5546ZM34.1816 67.5419C52.8276 67.5419 67.9433 52.4263 67.9433 33.7802C67.9433 15.1342 52.8276 0.0185547 34.1816 0.0185547C15.5355 0.0185547 0.419922 15.1342 0.419922 33.7802C0.419922 52.4263 15.5355 67.5419 34.1816 67.5419Z" fill="#1A1A1A"/>
<path d="M10.2285 51.4856H59.5027L56.8601 55.8711L42.8831 62.8702H24.4868L10.2285 55.5001V51.4856Z" fill="#1A1A1A"/>
<path d="M92.5232 41.1744H101.843V45.5774H86.8501V17.8901H92.5232V41.1744Z" fill="#1A1A1A"/>
<path d="M105.611 34.5104C105.611 32.2891 106.057 30.319 106.948 28.6001C107.867 26.8812 109.096 25.559 110.636 24.6334C112.203 23.7079 113.945 23.2451 115.863 23.2451C117.538 23.2451 118.997 23.5757 120.24 24.2368C121.509 24.8979 122.522 25.7309 123.279 26.7358V23.6021H128.993V45.5774H123.279V42.3644C122.55 43.3957 121.536 44.2552 120.24 44.9427C118.97 45.6038 117.498 45.9344 115.823 45.9344C113.932 45.9344 112.203 45.4584 110.636 44.5064C109.096 43.5544 107.867 42.219 106.948 40.5001C106.057 38.7547 105.611 36.7582 105.611 34.5104ZM123.279 34.5897C123.279 33.2411 123.009 32.0908 122.468 31.1388C121.928 30.1603 121.199 29.4199 120.28 28.9174C119.362 28.3885 118.376 28.1241 117.322 28.1241C116.269 28.1241 115.296 28.3753 114.405 28.8778C113.513 29.3802 112.784 30.1206 112.216 31.0991C111.676 32.0511 111.406 33.1882 111.406 34.5104C111.406 35.8326 111.676 36.9962 112.216 38.0011C112.784 38.9795 113.513 39.7332 114.405 40.2621C115.323 40.791 116.296 41.0554 117.322 41.0554C118.376 41.0554 119.362 40.8042 120.28 40.3017C121.199 39.7729 121.928 39.0324 122.468 38.0804C123.009 37.102 123.279 35.9384 123.279 34.5897Z" fill="#1A1A1A"/>
<path d="M141.827 27.0134C142.557 25.8499 143.502 24.9375 144.664 24.2764C145.853 23.6153 147.203 23.2848 148.716 23.2848V29.1158H147.217C145.434 29.1158 144.083 29.5256 143.165 30.3454C142.273 31.1652 141.827 32.5932 141.827 34.6294V45.5774H136.154V23.6021H141.827V27.0134Z" fill="#1A1A1A"/>
<path d="M167.449 45.5774L159.831 36.2161V45.5774H154.158V16.2241H159.831V32.9238L167.368 23.6021H174.743L164.856 34.6294L174.824 45.5774H167.449Z" fill="#1A1A1A"/>
<path d="M214.182 17.8901V45.5774H208.509V33.7964H196.393V45.5774H190.72V17.8901H196.393V29.2744H208.509V17.8901H214.182Z" fill="#1A1A1A"/>
<path d="M231.355 45.9344C229.194 45.9344 227.249 45.4716 225.52 44.5461C223.791 43.5941 222.427 42.2586 221.427 40.5397C220.455 38.8209 219.969 36.8375 219.969 34.5897C219.969 32.342 220.468 30.3586 221.468 28.6398C222.495 26.9209 223.886 25.5987 225.642 24.6731C227.398 23.7211 229.356 23.2451 231.517 23.2451C233.679 23.2451 235.637 23.7211 237.393 24.6731C239.149 25.5987 240.527 26.9209 241.526 28.6398C242.553 30.3586 243.066 32.342 243.066 34.5897C243.066 36.8375 242.54 38.8209 241.486 40.5397C240.459 42.2586 239.055 43.5941 237.272 44.5461C235.516 45.4716 233.544 45.9344 231.355 45.9344ZM231.355 41.0951C232.382 41.0951 233.341 40.8571 234.232 40.3811C235.151 39.8786 235.88 39.1382 236.421 38.1597C236.961 37.1813 237.231 35.9913 237.231 34.5897C237.231 32.5006 236.664 30.9008 235.529 29.7901C234.422 28.653 233.057 28.0844 231.436 28.0844C229.816 28.0844 228.451 28.653 227.344 29.7901C226.263 30.9008 225.723 32.5006 225.723 34.5897C225.723 36.6789 226.25 38.292 227.303 39.4291C228.384 40.5397 229.734 41.0951 231.355 41.0951Z" fill="#1A1A1A"/>
<path d="M270.042 23.6021V45.5774H264.328V42.8007C263.599 43.7527 262.64 44.5064 261.451 45.0617C260.289 45.5906 259.02 45.8551 257.642 45.8551C255.886 45.8551 254.333 45.4981 252.982 44.7841C251.631 44.0436 250.564 42.9726 249.781 41.5711C249.024 40.1431 248.646 38.4506 248.646 36.4937V23.6021H254.319V35.7004C254.319 37.4457 254.765 38.7944 255.656 39.7464C256.548 40.672 257.763 41.1347 259.303 41.1347C260.87 41.1347 262.099 40.672 262.991 39.7464C263.882 38.7944 264.328 37.4457 264.328 35.7004V23.6021H270.042Z" fill="#1A1A1A"/>
<path d="M285.851 45.9344C284.014 45.9344 282.366 45.6171 280.907 44.9824C279.448 44.3213 278.287 43.4354 277.422 42.3247C276.585 41.2141 276.125 39.9844 276.044 38.6357H281.758C281.866 39.482 282.285 40.1827 283.014 40.7381C283.771 41.2934 284.703 41.5711 285.81 41.5711C286.891 41.5711 287.728 41.3595 288.323 40.9364C288.944 40.5133 289.255 39.9712 289.255 39.3101C289.255 38.5961 288.876 38.0672 288.12 37.7234C287.391 37.3532 286.215 36.9565 284.595 36.5334C282.92 36.1367 281.542 35.7269 280.461 35.3037C279.408 34.8806 278.489 34.2327 277.706 33.3601C276.949 32.4874 276.571 31.3106 276.571 29.8298C276.571 28.6133 276.922 27.5027 277.625 26.4978C278.354 25.4929 279.381 24.6995 280.704 24.1178C282.055 23.536 283.636 23.2451 285.446 23.2451C288.12 23.2451 290.254 23.9062 291.848 25.2284C293.442 26.5242 294.32 28.2828 294.482 30.5041H289.052C288.971 29.6314 288.593 28.9439 287.917 28.4414C287.269 27.9125 286.391 27.6481 285.283 27.6481C284.257 27.6481 283.46 27.8332 282.893 28.2034C282.352 28.5736 282.082 29.0893 282.082 29.7504C282.082 30.4909 282.46 31.0594 283.217 31.4561C283.973 31.8263 285.148 32.2098 286.742 32.6064C288.363 33.0031 289.7 33.413 290.754 33.8361C291.808 34.2592 292.712 34.9203 293.469 35.8194C294.252 36.6921 294.658 37.8556 294.685 39.3101C294.685 40.5794 294.32 41.7165 293.59 42.7214C292.888 43.7263 291.862 44.5196 290.511 45.1014C289.187 45.6567 287.634 45.9344 285.851 45.9344Z" fill="#1A1A1A"/>
<path d="M321.831 34.1137C321.831 34.9071 321.777 35.6211 321.669 36.2557H305.258C305.393 37.8424 305.96 39.0853 306.96 39.9844C307.959 40.8835 309.188 41.3331 310.647 41.3331C312.754 41.3331 314.254 40.4472 315.145 38.6754H321.264C320.616 40.791 319.373 42.5363 317.536 43.9114C315.699 45.2601 313.443 45.9344 310.769 45.9344C308.608 45.9344 306.662 45.4716 304.934 44.5461C303.232 43.5941 301.894 42.2586 300.922 40.5397C299.976 38.8209 299.504 36.8375 299.504 34.5897C299.504 32.3155 299.976 30.319 300.922 28.6001C301.867 26.8812 303.191 25.559 304.893 24.6334C306.595 23.7079 308.554 23.2451 310.769 23.2451C312.903 23.2451 314.807 23.6947 316.482 24.5938C318.184 25.4929 319.494 26.7754 320.413 28.4414C321.359 30.081 321.831 31.9718 321.831 34.1137ZM315.956 32.5271C315.929 31.0991 315.402 29.962 314.375 29.1158C313.349 28.2431 312.092 27.8068 310.607 27.8068C309.202 27.8068 308.013 28.2299 307.041 29.0761C306.095 29.8959 305.514 31.0462 305.298 32.5271H315.956Z" fill="#1A1A1A"/>
</svg>
