<svg width="238" height="50" viewBox="0 0 238 50" fill="none" xmlns="http://www.w3.org/2000/svg">
<mask id="mask0_248_23" style="mask-type:alpha" maskUnits="userSpaceOnUse" x="0" y="0" width="49" height="50">
<path d="M48.75 24.666C48.75 38.1279 37.8369 49.0409 24.375 49.0409C10.9131 49.0409 0 38.1279 0 24.666C0 11.204 10.9131 0.291016 24.375 0.291016C37.8369 0.291016 48.75 11.204 48.75 24.666Z" fill="#D9D9D9"/>
</mask>
<g mask="url(#mask0_248_23)">
<path d="M-5.5078 38.2194L8.30025 38.75V21.2597H-5.5078V38.2194Z" fill="white"/>
<path d="M-5.5078 20.095H8.30025L22.0366 9.05168H9.1039L-5.5078 20.095Z" fill="white"/>
<path d="M19.1465 19.0593V27.6596H24.2775V15.3124L19.1465 19.0593Z" fill="white"/>
<path d="M25.6959 15.3154V27.6596H31.3276V19.4425L25.6959 15.3154Z" fill="white"/>
<path d="M32.7459 20.4819V27.6596H35.9581V22.8358L32.7459 20.4819Z" fill="white"/>
<path d="M35.9581 29.0196H32.7459V35.4994H35.9581V29.0196Z" fill="white"/>
<path d="M31.3276 35.4994V29.0196H25.6959V35.4994H31.3276Z" fill="white"/>
<path d="M24.2775 35.4994V29.0196H19.1465V35.4994H24.2775Z" fill="white"/>
<path d="M17.7281 35.4994V29.0196H13.9736V35.4994H17.7281Z" fill="white"/>
<path d="M13.9736 27.6596H17.7281V20.095L13.9736 22.8366V27.6596Z" fill="white"/>
<path fill-rule="evenodd" clip-rule="evenodd" d="M24.9907 9.05168L40.5468 21.2597V38.2194H9.7186V21.2597L24.9907 9.05168ZM24.9875 13.0846L37.3764 22.1635V36.8594H12.5553V22.1628L24.9875 13.0846Z" fill="white"/>
</g>
<path fill-rule="evenodd" clip-rule="evenodd" d="M25 46.307C36.7675 46.307 46.307 36.7675 46.307 25C46.307 13.2325 36.7675 3.69305 25 3.69305C13.2325 3.69305 3.69305 13.2325 3.69305 25C3.69305 36.7675 13.2325 46.307 25 46.307ZM25 50C38.8071 50 50 38.8071 50 25C50 11.1929 38.8071 0 25 0C11.1929 0 0 11.1929 0 25C0 38.8071 11.1929 50 25 50Z" fill="white"/>
<path d="M7.26294 38.1108H43.7498L41.7929 41.3582L31.4431 46.541H17.821L7.26294 41.0835V38.1108Z" fill="white"/>
<path d="M68.2008 30.4753H75.1022V33.7356H64V13.2336H68.2008V30.4753Z" fill="white"/>
<path d="M77.8923 25.5407C77.8923 23.8959 78.2224 22.437 78.8825 21.1642C79.5627 19.8914 80.4729 18.9123 81.6131 18.227C82.7733 17.5416 84.0636 17.1989 85.4839 17.1989C86.7241 17.1989 87.8043 17.4437 88.7245 17.9332C89.6647 18.4228 90.4149 19.0396 90.975 19.7837V17.4633H95.2058V33.7356H90.975V31.3565C90.4349 32.1202 89.6847 32.7566 88.7245 33.2657C87.7843 33.7552 86.6941 34 85.4539 34C84.0536 34 82.7733 33.6475 81.6131 32.9426C80.4729 32.2376 79.5627 31.2488 78.8825 29.976C78.2224 28.6836 77.8923 27.2052 77.8923 25.5407ZM90.975 25.5995C90.975 24.6008 90.7749 23.749 90.3749 23.0441C89.9748 22.3195 89.4347 21.7713 88.7545 21.3992C88.0744 21.0076 87.3442 20.8117 86.5641 20.8117C85.7839 20.8117 85.0638 20.9978 84.4037 21.3698C83.7435 21.7419 83.2034 22.2902 82.7833 23.0147C82.3832 23.7196 82.1832 24.5616 82.1832 25.5407C82.1832 26.5198 82.3832 27.3814 82.7833 28.1255C83.2034 28.85 83.7435 29.4081 84.4037 29.7997C85.0838 30.1914 85.8039 30.3872 86.5641 30.3872C87.3442 30.3872 88.0744 30.2012 88.7545 29.8291C89.4347 29.4375 89.9748 28.8892 90.3749 28.1842C90.7749 27.4597 90.975 26.5981 90.975 25.5995Z" fill="white"/>
<path d="M104.71 19.9893C105.25 19.1277 105.95 18.4522 106.81 17.9626C107.69 17.4731 108.691 17.2283 109.811 17.2283V21.5461H108.701C107.38 21.5461 106.38 21.8496 105.7 22.4566C105.04 23.0636 104.71 24.1211 104.71 25.6288V33.7356H100.509V17.4633H104.71V19.9893Z" fill="white"/>
<path d="M123.683 33.7356L118.041 26.8037V33.7356H113.841V12H118.041V24.3658L123.623 17.4633H129.084L121.762 25.6288L129.144 33.7356H123.683Z" fill="white"/>
<path d="M158.287 13.2336V33.7356H154.087V25.012H145.115V33.7356H140.914V13.2336H145.115V21.6636H154.087V13.2336H158.287Z" fill="white"/>
<path d="M171.004 34C169.404 34 167.963 33.6573 166.683 32.972C165.403 32.267 164.393 31.2781 163.652 30.0053C162.932 28.7325 162.572 27.2639 162.572 25.5995C162.572 23.935 162.942 22.4664 163.682 21.1936C164.443 19.9208 165.473 18.9417 166.773 18.2563C168.073 17.5514 169.524 17.1989 171.124 17.1989C172.724 17.1989 174.175 17.5514 175.475 18.2563C176.775 18.9417 177.795 19.9208 178.535 21.1936C179.296 22.4664 179.676 23.935 179.676 25.5995C179.676 27.2639 179.286 28.7325 178.505 30.0053C177.745 31.2781 176.705 32.267 175.385 32.972C174.085 33.6573 172.624 34 171.004 34ZM171.004 30.4166C171.764 30.4166 172.474 30.2403 173.134 29.8878C173.815 29.5158 174.355 28.9675 174.755 28.243C175.155 27.5185 175.355 26.6373 175.355 25.5995C175.355 24.0525 174.935 22.8678 174.095 22.0454C173.274 21.2034 172.264 20.7824 171.064 20.7824C169.864 20.7824 168.854 21.2034 168.033 22.0454C167.233 22.8678 166.833 24.0525 166.833 25.5995C166.833 27.1464 167.223 28.3409 168.003 29.1829C168.804 30.0053 169.804 30.4166 171.004 30.4166Z" fill="white"/>
<path d="M199.651 17.4633V33.7356H195.42V31.6796C194.88 32.3845 194.17 32.9426 193.289 33.3538C192.429 33.7454 191.489 33.9413 190.469 33.9413C189.168 33.9413 188.018 33.6769 187.018 33.1482C186.018 32.5999 185.228 31.8069 184.648 30.769C184.087 29.7116 183.807 28.4584 183.807 27.0093V17.4633H188.008V26.4219C188.008 27.7143 188.338 28.713 188.998 29.4179C189.659 30.1033 190.559 30.4459 191.699 30.4459C192.859 30.4459 193.769 30.1033 194.43 29.4179C195.09 28.713 195.42 27.7143 195.42 26.4219V17.4633H199.651Z" fill="white"/>
<path d="M211.357 34C209.997 34 208.776 33.765 207.696 33.2951C206.616 32.8055 205.756 32.1495 205.116 31.3271C204.496 30.5047 204.156 29.5941 204.095 28.5955H208.326C208.406 29.2221 208.716 29.741 209.257 30.1522C209.817 30.5634 210.507 30.769 211.327 30.769C212.127 30.769 212.747 30.6124 213.187 30.2991C213.647 29.9858 213.877 29.5843 213.877 29.0948C213.877 28.5661 213.597 28.1745 213.037 27.9199C212.497 27.6458 211.627 27.352 210.427 27.0387C209.187 26.745 208.166 26.4415 207.366 26.1282C206.586 25.8149 205.906 25.3351 205.326 24.6889C204.766 24.0427 204.486 23.1713 204.486 22.0748C204.486 21.174 204.746 20.3516 205.266 19.6075C205.806 18.8634 206.566 18.2759 207.546 17.8451C208.546 17.4143 209.717 17.1989 211.057 17.1989C213.037 17.1989 214.618 17.6885 215.798 18.6676C216.978 19.6271 217.628 20.9292 217.748 22.5741H213.727C213.667 21.9279 213.387 21.4188 212.887 21.0467C212.407 20.6551 211.757 20.4593 210.937 20.4593C210.177 20.4593 209.587 20.5963 209.167 20.8705C208.766 21.1446 208.566 21.5265 208.566 22.016C208.566 22.5643 208.846 22.9853 209.407 23.279C209.967 23.5532 210.837 23.8371 212.017 24.1308C213.217 24.4246 214.208 24.7281 214.988 25.0414C215.768 25.3547 216.438 25.8442 216.998 26.51C217.578 27.1562 217.878 28.0178 217.898 29.0948C217.898 30.0347 217.628 30.8767 217.088 31.6208C216.568 32.3649 215.808 32.9524 214.808 33.3832C213.827 33.7944 212.677 34 211.357 34Z" fill="white"/>
<path d="M238 25.247C238 25.8344 237.96 26.3632 237.88 26.8331H225.728C225.828 28.008 226.248 28.9283 226.988 29.5941C227.728 30.2599 228.638 30.5928 229.718 30.5928C231.279 30.5928 232.389 29.9368 233.049 28.6248H237.58C237.1 30.1914 236.18 31.4838 234.819 32.502C233.459 33.5007 231.789 34 229.808 34C228.208 34 226.768 33.6573 225.487 32.972C224.227 32.267 223.237 31.2781 222.517 30.0053C221.817 28.7325 221.467 27.2639 221.467 25.5995C221.467 23.9154 221.817 22.437 222.517 21.1642C223.217 19.8914 224.197 18.9123 225.457 18.227C226.718 17.5416 228.168 17.1989 229.808 17.1989C231.389 17.1989 232.799 17.5318 234.039 18.1976C235.299 18.8634 236.27 19.8131 236.95 21.0467C237.65 22.2608 238 23.6609 238 25.247ZM233.649 24.0721C233.629 23.0147 233.239 22.1727 232.479 21.5461C231.719 20.8999 230.789 20.5768 229.688 20.5768C228.648 20.5768 227.768 20.8901 227.048 21.5167C226.348 22.1237 225.918 22.9755 225.758 24.0721H233.649Z" fill="white"/>
</svg>
